<svg width="1280" height="928" viewBox="0 0 1280 928" fill="none" xmlns="http://www.w3.org/2000/svg" xmlns:xlink="http://www.w3.org/1999/xlink">
<g id="Group 2">
<rect id="photo_2023-11-25_20-33-03 1" width="1280" height="928" fill="url(#pattern0)"/>
<path id="Vector 3" d="M709.5 221.5H707.5L706.5 236H708V275H706L705.5 281.5H707.5L708 380L707.5 380.5H705.5V381.5L704.5 384L705.5 387L707.5 387.5V402.5L706 403V408H707.5V547.5V549.5L706.5 550L705.5 556L707.5 556.5V570L706.5 570.5L705 571.5V577.5H707.5L708.5 661L708 762.5L706 767L701.5 779L703 788L723.5 797.5L759.5 799.5L920 801.5V730.5L919.5 683V641V612.5L918.5 584L919 560L919.5 558V556.5L919 554L918 550L918.5 412L919 411L919.5 410L920.5 409V401.5H919.5V386V281.5L918.5 238.5V223.5H916.5V215.5L916 212.5L914.5 210L910.5 207L904 205.5H887.5V200H854V207H832.5V213.5L795 212.5L794.5 205.5H772.5V199.5H739.5V204H726.5H718.5L715 205.5L710.5 209.5L709.5 221.5Z" fill="#4807B4" fill-opacity="0.4" stroke="#4807B4"/>
<path id="Vector 2" d="M599.5 326L561 321L559.5 385L562.5 390.5V395.5L560 397L559.5 760L666 756V752.5V596.5L667.5 595.5V591.5L666 590.5V458L667.5 458.5V452.5L666 451V380.5L667.5 379.5V378.5V376L665.5 374V345.5V336.5L663.5 334.5L660 333.5L654 331.5L644 330.5L643.5 329H643L599.5 326Z" fill="#4807B4" fill-opacity="0.4" stroke="#4807B4"/>
<path id="Vector 1" d="M251 142L240.5 157.5V210L238.5 214.5V217.5V225.5L240.5 227L243 230L241.5 235.5L240.5 238V242V252L243 253.5V259.5L241.5 261.5L240.5 265.5V275L243 276V282.5L241.5 286L240.5 291V299.5L243 301V308L240.5 312.5V323.5L243 325L241.5 330L243 335L238.5 340V348L241.5 351.5V360.5L238.5 366.5V373.5H241.5V380V388L240.5 391L241.5 396.5L244 398.5L243 407L240.5 409.5V422.5L243 424L244 431H241.5L240.5 439V447.5H243V454.5L241.5 458L240.5 463V469.5L243 471L244 474L243 480.5H240.5V486V495L243 496.5V504L240.5 507.5V512.5L241.5 519.5L244 520.5V526.5L241.5 528V535.5L237 537V544H241.5L243 546V550.5L241.5 554L243 559.5L238.5 561V569H244V577.5H241.5L243 583L240.5 587L241.5 595.5V607.5L240.5 609.5V617.5H245L244 627H240.5V630V642.5H245V660L241.5 662V667L240.5 679V689.5L243 691V706.5L241.5 708V714V731L240.5 732.5V736L243 738V755.5L240.5 757V761.5L243 765V779.5L238 781V787.5L245 792L243 805V808.5L240.5 810.5L241.5 814L255.5 822.5H263H272L276.5 820H281.5H289L288 826.5L292 829L299.5 832.5L310.5 835.5L323 839H356.5L382 836.5H416L494 824.5L553.5 808L560.5 803.5L559 795.5V777L560.5 775V769H559V735V640V552V547.5V544V396.5L561.5 395V391L559 386L560 327.5L559 250.5L558 249L554.5 246.5V243H556L560 240V237.5V234V228.5L558 226.5L556 224V222.5V220.5V218H558L560 216V213V197L558 194L554.5 191.5L547 186.5L539.5 183V178.5L524 173L511.5 168.5L483.5 153L457 138.5L409 112.5L398.5 106.5L389 100L382 95.5L372.5 89L368.5 91H367L362.5 89L354 84.5L347.5 80.5L341 76.5L333.5 74H329.5H323.5L318 75.5L314.5 79L308 86.5L297 80.5L282.5 100V142L274.5 138.5L265.5 149.5L251 142Z" fill="#4807B4" fill-opacity="0.4" stroke="#4807B4"/>
</g>
<defs>
<pattern id="pattern0" patternContentUnits="objectBoundingBox" width="1" height="1">
<use xlink:href="#image0_20_4" transform="scale(0.00078125 0.00107759)"/>
</pattern>
<image id="image0_20_4" data-name="photo_2023-11-25_20-33-03.jpg" width="1280" height="928" xlink:href="assets/img/genplan.jpg"/>
</defs>
</svg>
